<svg width="14" height="26" viewBox="0 0 14 26" fill="none" xmlns="http://www.w3.org/2000/svg">
<path d="M12.6335 1.32304e-05C12.3383 -0.00136009 12.0512 0.126764 11.818 0.363844L0.537825 11.5767C0.370611 11.7438 0.235079 11.9592 0.14179 12.206C0.0485012 12.4529 3.05304e-06 12.7246 3.02927e-06 13.0001C3.0055e-06 13.2755 0.0485011 13.5473 0.14179 13.7941C0.235079 14.041 0.37061 14.2562 0.537825 14.4233L11.818 25.6363C12.0512 25.8734 12.3383 26.0014 12.6335 26C12.8128 26.0007 12.9903 25.9551 13.1561 25.8658C13.3219 25.7765 13.4726 25.6453 13.5995 25.4795C13.7264 25.3138 13.8272 25.1167 13.8959 24.8999C13.9646 24.6831 14 24.4506 14 24.2158L14 1.78421C14 1.54942 13.9646 1.31694 13.8959 1.1001C13.8272 0.883265 13.7264 0.686346 13.5995 0.520597C13.4726 0.354849 13.3219 0.223534 13.1561 0.134212C12.9903 0.0448913 12.8128 -0.000745878 12.6335 1.32304e-05Z" fill="#E2F163"/>
</svg>
