<svg width="35" height="35" viewBox="0 0 35 35" fill="none" xmlns="http://www.w3.org/2000/svg">
<rect width="34.1306" height="34.1306" rx="13.1271" fill="white"/>
<path d="M17.1199 6.02041C14.3527 6.00324 11.6744 7.01058 9.5868 8.85362C7.49924 10.6967 6.14587 13.2489 5.78033 16.0319C5.41478 18.8149 6.06216 21.6376 7.60116 23.971C9.14015 26.3043 11.4651 27.9882 14.1402 28.7068C14.1118 26.7554 14.107 23.9965 14.1117 22.5738H11.3925C11.2392 22.5738 11.0921 22.512 10.9837 22.402C10.8753 22.2921 10.8145 22.1429 10.8145 21.9874V18.9161C10.8158 18.7614 10.8772 18.6135 10.9855 18.5046C11.0937 18.3956 11.24 18.3345 11.3925 18.3345H14.1402C14.1734 15.8015 14.216 15.1863 14.216 15.1863C14.216 14.6308 14.3238 14.0808 14.5333 13.5677C14.7428 13.0545 15.0499 12.5882 15.437 12.1955C15.8241 11.8027 16.2837 11.4911 16.7895 11.2786C17.2953 11.066 17.8374 10.9566 18.3849 10.9566H20.9905C21.1112 10.9566 21.2307 10.9807 21.3422 11.0276C21.4537 11.0745 21.555 11.1431 21.6404 11.2297C21.7257 11.3163 21.7934 11.4191 21.8395 11.5322C21.8857 11.6454 21.9095 11.7666 21.9095 11.8891V15.1863H19.8204C19.489 15.1876 19.1716 15.3216 18.9373 15.5593C18.703 15.797 18.5709 16.119 18.5696 16.4552C18.5696 17.229 18.5696 17.0848 18.5696 18.3345H21.4121C21.4799 18.3345 21.5471 18.3481 21.6097 18.3744C21.6724 18.4007 21.7293 18.4393 21.7772 18.488C21.8252 18.5366 21.8632 18.5944 21.8892 18.6579C21.9151 18.7215 21.9285 18.7896 21.9285 18.8584V22.0307C21.9285 22.0995 21.9151 22.1676 21.8892 22.2312C21.8632 22.2947 21.8252 22.3525 21.7772 22.4011C21.7293 22.4498 21.6724 22.4884 21.6097 22.5147C21.5471 22.541 21.4799 22.5546 21.4121 22.5546H18.5696C18.5696 23.9965 18.5696 26.9765 18.5696 29C21.472 28.672 24.1388 27.2234 26.017 24.9546C27.8953 22.6858 28.8411 19.7708 28.6584 16.8137C28.4756 13.8565 27.1783 11.0842 25.0354 9.07114C22.8926 7.05813 20.0685 5.95886 17.1484 6.00118L17.1199 6.02041Z" fill="#896CFE"/>
</svg>
