<svg width="192" height="245" viewBox="0 0 192 245" fill="none" xmlns="http://www.w3.org/2000/svg">
<path d="M168.882 219.123C165.282 207.061 169.495 194.138 174.198 182.446C182.162 164.02 186.509 144.227 187 124.15C187 87.9243 174.485 50.5503 147.614 25.4839C133.936 13.0417 116.335 5.81467 97.8857 5.06482C79.4362 4.31498 61.3106 10.09 46.6741 21.3814C14.7316 45.9965 4.46554 87.473 4.91543 126.119V144.662M136.939 61.0939C120.906 40.5813 98.8616 32.3762 76.2442 42.3864C58.4939 50.2632 46.6326 67.5758 40.5795 85.5038C32.9313 108.068 36.4896 131.739 33.9948 155.042C32.6451 168.211 27.9417 181.831 17.635 189.954M148.432 81.9756C153.489 95.3827 156.04 109.61 155.957 123.944C155.871 142.061 151.675 159.92 143.687 176.169C139.147 185.482 129.577 201.892 116.898 195.451C106.55 190.2 108.268 178.057 111.213 168.785C116.816 151.185 124.996 135.965 125.814 117.011C126.591 99.2472 121.029 80.5808 103.442 73.1142C98.4372 70.9578 92.8587 70.5331 87.5864 71.9073C82.3141 73.2814 77.6472 76.3762 74.3216 80.7039C59.3933 101.216 67.8189 123.944 60.9069 146.549M88.5958 150.16C81.8065 169.195 74.0356 191.882 80.4159 212.067C88.2277 236.682 116.325 245.133 138.902 237.174M56.8989 173.995C54.7795 181.807 51.7451 189.34 47.8597 196.436C43.9591 203.56 38.3329 209.585 31.5 213.954M94.935 123.616C96.5133 116.664 96.9556 109.501 96.2441 102.406C97.1337 109.496 96.6894 116.69 94.935 123.616Z" stroke="white" stroke-width="9" stroke-linecap="round" stroke-linejoin="round"/>
</svg>
