<svg width="35" height="35" viewBox="0 0 35 35" fill="none" xmlns="http://www.w3.org/2000/svg">
<rect width="34.1306" height="34.1306" rx="13.1271" fill="white"/>
<path d="M24.3593 26.774C23.9975 25.5617 24.421 24.2627 24.8937 23.0874C25.6943 21.2353 26.1312 19.2457 26.1805 17.2276C26.1805 13.5863 24.9225 9.82957 22.2215 7.30996C20.8467 6.05931 19.0775 5.33287 17.223 5.25749C15.3685 5.18212 13.5466 5.76261 12.0753 6.89759C8.86458 9.37184 7.83266 13.5409 7.87788 17.4255V19.2894M21.1485 10.8894C19.537 8.82751 17.3211 8.00276 15.0477 9.00896C13.2634 9.80072 12.0712 11.5409 11.4627 13.343C10.694 15.6111 11.0516 17.9905 10.8009 20.3328C10.6652 21.6565 10.1924 23.0256 9.15642 23.8421M22.3038 12.9884C22.8121 14.336 23.0685 15.7661 23.0602 17.2069C23.0515 19.028 22.6297 20.8232 21.8269 22.4565C21.3705 23.3926 20.4085 25.0421 19.1341 24.3946C18.094 23.8668 18.2666 22.6462 18.5626 21.7142C19.1258 19.9451 19.9481 18.4152 20.0303 16.51C20.1084 14.7245 19.5493 12.8482 17.7816 12.0976C17.2784 11.8809 16.7177 11.8382 16.1877 11.9763C15.6578 12.1144 15.1887 12.4255 14.8544 12.8605C13.3538 14.9224 14.2008 17.2069 13.506 19.4791M16.2892 19.842C15.6068 21.7554 14.8257 24.0359 15.467 26.0648C16.2522 28.539 19.0765 29.3885 21.3458 28.5885M13.1031 22.2379C12.8901 23.0232 12.5851 23.7803 12.1945 24.4936C11.8024 25.2097 11.2369 25.8153 10.5501 26.2544M16.9264 17.174C17.0851 16.4751 17.1295 15.7551 17.058 15.042C17.1474 15.7546 17.1028 16.4778 16.9264 17.174Z" stroke="#896CFE" stroke-width="1.42515" stroke-linecap="round" stroke-linejoin="round"/>
</svg>
